<mxfile host="diagram-viewer.giteeusercontent.com" modified="2024-06-02T22:25:37.176Z" agent="5.0 (Windows NT 10.0; Win64; x64) AppleWebKit/537.36 (KHTML, like Gecko) Chrome/114.0.5735.289 Safari/537.36" version="${version}" etag="2jaeIWNct0ufLHWvU-aB">
  <diagram id="0" name="第 1 页">
    <mxGraphModel dx="1374" dy="685" grid="1" gridSize="10" guides="1" tooltips="1" connect="1" arrows="1" fold="1" page="1" pageScale="1" pageWidth="827" pageHeight="1169" math="0" shadow="0">
      <root>
        <mxCell id="0" />
        <mxCell id="1" parent="0" />
      </root>
    </mxGraphModel>
  </diagram>
</mxfile>
